<?xml version="1.0" standalone="no"?>
<!DOCTYPE svg PUBLIC "-//W3C//DTD SVG 20010904//EN"
 "http://www.w3.org/TR/2001/REC-SVG-20010904/DTD/svg10.dtd">
<svg version="1.0" xmlns="http://www.w3.org/2000/svg"
 width="878.000000pt" height="878.000000pt" viewBox="0 0 878.000000 878.000000"
 preserveAspectRatio="xMidYMid meet">
<metadata>
Created by potrace 1.11, written by Peter Selinger 2001-2013
</metadata>
<g transform="translate(0.000000,878.000000) scale(0.100000,-0.100000)"
fill="#000000" stroke="none">
<path d="M4155 8579 c-60 -16 -119 -31 -130 -33 -11 -3 -20 -5 -20 -6 0 -1
-11 -4 -25 -6 -14 -3 -43 -9 -65 -15 -22 -6 -48 -13 -57 -15 -10 -2 -26 -6
-35 -9 -70 -18 -101 -26 -118 -30 -11 -2 -29 -6 -40 -8 -17 -5 -58 -15 -125
-31 -8 -2 -55 -14 -105 -26 -106 -25 -119 -28 -145 -35 -11 -3 -29 -7 -41 -10
-11 -2 -30 -7 -42 -11 -12 -4 -29 -8 -37 -9 -8 -1 -49 -11 -91 -23 -41 -11
-89 -24 -105 -27 -16 -3 -40 -8 -54 -11 -14 -3 -61 -15 -105 -26 -44 -12 -89
-22 -100 -24 -11 -2 -92 -22 -180 -44 -88 -23 -169 -43 -180 -46 -11 -2 -74
-17 -140 -34 -66 -16 -131 -32 -145 -35 -14 -4 -29 -7 -35 -8 -5 -2 -16 -6
-22 -10 -7 -5 -13 -6 -13 -3 0 2 -15 0 -32 -5 -18 -5 -49 -12 -68 -15 -19 -3
-43 -10 -52 -15 -10 -5 -18 -7 -18 -5 0 3 -10 2 -23 -3 -13 -5 -41 -12 -61
-15 -21 -4 -41 -8 -45 -11 -4 -2 -18 -6 -32 -9 -13 -3 -34 -7 -47 -10 -12 -4
-30 -8 -40 -10 -9 -3 -55 -14 -102 -26 -47 -12 -101 -25 -120 -30 -19 -4 -75
-18 -125 -30 -49 -12 -97 -23 -105 -25 -8 -2 -44 -11 -80 -20 -36 -8 -73 -18
-83 -20 -10 -2 -28 -7 -40 -11 -12 -4 -29 -8 -37 -9 -8 -1 -41 -9 -72 -18 -95
-28 -107 -50 -114 -195 -2 -59 -7 -156 -10 -217 -12 -238 -7 -834 11 -1065 2
-30 6 -98 10 -150 9 -133 12 -167 20 -235 4 -33 8 -78 10 -101 2 -22 6 -62 10
-90 3 -27 8 -65 10 -84 2 -19 7 -55 10 -80 3 -25 8 -63 10 -85 3 -22 7 -51 10
-65 9 -44 14 -74 19 -120 3 -25 10 -60 15 -79 6 -18 10 -36 9 -40 -2 -7 8 -63
28 -153 7 -36 17 -83 20 -105 3 -21 10 -46 15 -55 5 -10 8 -18 5 -18 -2 0 0
-17 5 -37 6 -21 12 -51 15 -68 3 -16 24 -97 45 -180 22 -82 41 -159 44 -169 2
-10 9 -33 15 -51 6 -18 13 -43 16 -56 6 -27 9 -38 16 -59 3 -8 29 -87 57 -175
54 -165 94 -281 113 -325 6 -14 12 -29 14 -35 3 -15 68 -172 93 -227 11 -26
21 -49 21 -53 0 -7 250 -510 298 -600 31 -58 79 -141 137 -237 5 -9 35 -54 66
-100 30 -46 71 -108 90 -138 34 -56 151 -227 166 -245 5 -5 24 -32 43 -60 18
-27 53 -75 77 -105 24 -30 47 -59 51 -65 117 -156 316 -390 400 -469 24 -23
119 -115 211 -206 92 -91 198 -192 236 -225 38 -33 76 -67 84 -76 9 -8 38 -33
66 -55 27 -21 56 -44 65 -51 18 -15 46 -36 242 -184 153 -115 367 -260 510
-344 138 -82 192 -105 239 -105 31 0 211 89 255 125 7 6 35 24 64 40 69 41
212 132 227 145 7 5 15 10 18 10 5 0 105 69 115 80 3 3 22 16 42 30 21 14 38
28 38 33 0 4 4 7 10 7 9 0 32 16 64 45 6 6 29 24 51 40 22 17 42 32 45 35 3 3
48 41 100 84 52 43 105 88 116 100 12 12 47 44 79 71 65 56 491 479 545 540
30 35 211 252 233 280 4 6 19 23 33 39 72 81 343 466 384 546 7 14 16 27 20
30 5 4 123 196 156 255 57 101 186 342 188 350 4 14 93 200 123 255 31 58 103
214 103 223 0 2 8 22 17 43 9 22 18 45 20 52 7 27 10 38 18 57 4 11 18 45 30
75 25 62 32 82 34 93 0 4 8 21 16 37 9 17 13 30 9 30 -4 0 -2 6 3 13 21 26
184 569 218 725 7 29 11 48 25 102 6 25 13 60 15 78 2 18 6 36 9 40 3 5 8 24
11 43 5 30 17 92 40 204 3 17 8 44 10 60 2 17 9 53 15 80 18 77 30 135 35 170
8 49 17 99 22 119 5 24 10 61 17 156 3 36 8 81 11 100 3 19 8 58 10 85 9 99
17 191 20 240 2 28 4 50 5 50 3 0 6 58 16 300 13 305 8 953 -10 1205 -3 41
-27 82 -59 98 -12 7 -51 19 -87 27 -36 9 -74 18 -85 21 -11 3 -31 7 -45 10
-14 3 -34 8 -45 11 -11 4 -22 8 -25 8 -12 3 -71 18 -145 35 -44 11 -163 40
-265 65 -102 26 -192 48 -200 50 -8 2 -64 15 -124 30 -60 15 -116 29 -125 30
-9 2 -16 4 -16 5 0 1 -8 3 -19 5 -20 4 -207 49 -266 65 -44 11 -89 22 -114 27
-11 2 -56 13 -100 24 -45 11 -88 22 -96 24 -8 2 -44 11 -80 20 -36 9 -75 19
-87 21 -12 2 -34 9 -48 14 -14 5 -25 7 -25 5 0 -2 -11 0 -25 5 -26 10 -58 17
-110 26 -16 3 -37 8 -45 11 -8 3 -31 9 -50 14 -31 7 -147 35 -175 42 -5 1 -16
6 -22 10 -7 5 -13 6 -13 4 0 -3 -17 -1 -37 4 -21 5 -49 12 -63 15 -36 8 -43
10 -60 17 -15 5 -95 25 -175 42 -33 8 -56 13 -160 39 -55 14 -113 28 -130 31
-40 8 -60 13 -60 15 0 2 -27 9 -65 15 -19 3 -51 12 -71 20 -20 8 -39 12 -42 9
-3 -3 -14 -1 -24 4 -10 6 -31 12 -48 15 -16 3 -55 13 -85 21 -80 23 -169 18
-295 -15z"/>
</g>
</svg>
